<svg width="490" height="357" viewBox="0 0 490 357" fill="none" xmlns="http://www.w3.org/2000/svg">
<g clip-path="url(#clip0_19416_52713)">
<path d="M444 48.7C474.13 84.53 489.2 127.77 489.2 178.4C489.2 229.03 474.13 272.27 444 308.1C423.73 332.13 400.67 348.1 374.8 356H114.45C90.25 347.27 68.45 332 49.05 310.2C16.68 273.8 0.5 229.88 0.5 178.45C0.5 127.02 16.68 83.07 49.05 46.7C68.75 24.57 90.92 9.17 115.55 0.5H373.65C399.98 8.27 423.43 24.33 444 48.7Z" fill="#CCCCCC" stroke="#666666"/>
<path d="M257.75 225.95H235.95V219.3H257.75V225.95Z" fill="#04092C"/>
<path d="M336.01 167.78V193.68C333.71 217.11 312.14 217.77 312.14 217.77H181.1C157.72 215.46 157.23 194.18 157.23 194.18V165.8C159.53 142.7 180.44 142.37 180.44 142.37H311.47C336 144.19 336 167.78 336 167.78" fill="white"/>
<path d="M181.11 218.14C157.65 215.82 156.88 194.4 156.87 194.19V165.81C159.18 142.62 180.23 142.02 180.44 142.01H311.48C336.09 143.83 336.38 167.55 336.38 167.79V193.69C334.07 217.2 312.37 218.14 312.15 218.14H181.1H181.11ZM311.46 142.74H180.45C180.25 142.74 159.85 143.34 157.61 165.84V194.18C157.61 194.38 158.38 215.16 181.15 217.41H312.15C312.35 217.41 333.41 216.48 335.65 193.65V167.78C335.65 167.55 335.36 144.51 311.46 142.74Z" fill="#999999"/>
<path d="M230.43 160.15C230.43 160.85 229.86 161.41 229.17 161.41C228.48 161.41 227.91 160.84 227.91 160.15C227.91 159.46 228.47 158.89 229.17 158.89C229.87 158.89 230.43 159.46 230.43 160.15ZM263.71 158.89C263.01 158.89 262.45 159.46 262.45 160.15C262.45 160.84 263.02 161.41 263.71 161.41C264.4 161.41 264.97 160.84 264.97 160.15C264.97 159.46 264.4 158.89 263.71 158.89ZM229.17 198.4C228.47 198.4 227.91 198.97 227.91 199.66C227.91 200.35 228.47 200.92 229.17 200.92C229.87 200.92 230.43 200.35 230.43 199.66C230.43 198.97 229.86 198.4 229.17 198.4ZM263.71 198.4C263.01 198.4 262.45 198.97 262.45 199.66C262.45 200.35 263.02 200.92 263.71 200.92C264.4 200.92 264.97 200.35 264.97 199.66C264.97 198.97 264.4 198.4 263.71 198.4ZM187.36 160.23C187.36 159.53 186.79 158.97 186.1 158.97C185.41 158.97 184.84 159.54 184.84 160.23C184.84 160.92 185.41 161.49 186.1 161.49C186.79 161.49 187.36 160.92 187.36 160.23ZM187.31 199.6C187.31 198.9 186.74 198.34 186.05 198.34C185.36 198.34 184.79 198.9 184.79 199.6C184.79 200.3 185.36 200.86 186.05 200.86C186.74 200.86 187.31 200.3 187.31 199.6ZM308.25 160.23C308.25 159.53 307.68 158.97 306.99 158.97C306.3 158.97 305.73 159.54 305.73 160.23C305.73 160.92 306.3 161.49 306.99 161.49C307.68 161.49 308.25 160.92 308.25 160.23ZM308.19 199.6C308.19 198.9 307.62 198.34 306.93 198.34C306.24 198.34 305.67 198.9 305.67 199.6C305.67 200.3 306.24 200.86 306.93 200.86C307.62 200.86 308.19 200.3 308.19 199.6Z" fill="#C2232A"/>
<path d="M306.82 213.87C298.97 213.87 292.59 207.49 292.59 199.64C292.59 191.79 298.97 185.41 306.82 185.41C314.67 185.41 321.05 191.79 321.05 199.64C321.05 207.49 314.67 213.87 306.82 213.87ZM306.82 186.14C299.38 186.14 293.33 192.19 293.33 199.63C293.33 207.07 299.38 213.12 306.82 213.12C314.26 213.12 320.31 207.07 320.31 199.63C320.31 192.19 314.26 186.14 306.82 186.14ZM185.96 213.87C178.11 213.87 171.73 207.49 171.73 199.64C171.73 191.79 178.11 185.41 185.96 185.41C193.81 185.41 200.19 191.79 200.19 199.64C200.19 207.49 193.81 213.87 185.96 213.87ZM185.96 186.14C178.52 186.14 172.47 192.19 172.47 199.63C172.47 207.07 178.52 213.12 185.96 213.12C193.4 213.12 199.45 207.07 199.45 199.63C199.45 192.19 193.4 186.14 185.96 186.14ZM306.87 174.32C299.02 174.32 292.64 167.94 292.64 160.09C292.64 152.24 299.02 145.86 306.87 145.86C314.72 145.86 321.1 152.24 321.1 160.09C321.1 167.94 314.72 174.32 306.87 174.32ZM306.87 146.6C299.43 146.6 293.38 152.65 293.38 160.09C293.38 167.53 299.43 173.58 306.87 173.58C314.31 173.58 320.36 167.53 320.36 160.09C320.36 152.65 314.31 146.6 306.87 146.6ZM186.02 174.32C178.17 174.32 171.79 167.94 171.79 160.09C171.79 152.24 178.17 145.86 186.02 145.86C193.87 145.86 200.25 152.24 200.25 160.09C200.25 167.94 193.87 174.32 186.02 174.32ZM186.02 146.6C178.58 146.6 172.53 152.65 172.53 160.09C172.53 167.53 178.58 173.58 186.02 173.58C193.46 173.58 199.51 167.53 199.51 160.09C199.51 152.65 193.46 146.6 186.02 146.6Z" fill="#C2232A"/>
<path d="M246.92 149.72H245.97V145.92H246.92V149.72ZM246.92 153.01H245.97V156.81H246.92V153.01ZM246.91 160.02H245.96V163.82H246.91V160.02ZM246.91 167.1H245.96V170.9H246.91V167.1ZM246.91 174.34H245.96V178.14H246.91V174.34ZM246.91 181.43H245.96V185.23H246.91V181.43ZM246.91 188.64H245.96V192.44H246.91V188.64ZM246.91 195.73H245.96V199.53H246.91V195.73ZM246.91 202.83H245.96V206.63H246.91V202.83ZM246.91 209.91H245.96V213.71H246.91V209.91Z" fill="#C2232A"/>
<path d="M247.1 213.9H245.78V209.73H247.1V213.9ZM246.15 213.53H246.73V210.09H246.15V213.53ZM247.1 206.82H245.78V202.65H247.1V206.82ZM246.15 206.45H246.73V203.01H246.15V206.45ZM247.1 199.72H245.78V195.55H247.1V199.72ZM246.15 199.35H246.73V195.91H246.15V199.35ZM247.1 192.63H245.78V188.46H247.1V192.63ZM246.15 192.26H246.73V188.82H246.15V192.26ZM247.1 185.42H245.78V181.25H247.1V185.42ZM246.15 185.05H246.73V181.61H246.15V185.05ZM247.1 178.33H245.78V174.16H247.1V178.33ZM246.15 177.96H246.73V174.52H246.15V177.96ZM247.1 171.09H245.78V166.92H247.1V171.09ZM246.15 170.73H246.73V167.29H246.15V170.73ZM247.1 164.01H245.78V159.84H247.1V164.01ZM246.15 163.64H246.73V160.2H246.15V163.64ZM247.1 156.99H245.78V152.82H247.1V156.99ZM246.16 156.63H246.74V153.19H246.16V156.63ZM247.1 149.91H245.78V145.74H247.1V149.91ZM246.16 149.54H246.74V146.1H246.16V149.54Z" fill="#C2232A"/>
<path d="M247.07 217.27H245.75V213.85H247.07V217.27ZM246.12 216.9H246.7V214.21H246.12V216.9ZM247.1 210.06H245.78V206.63H247.1V210.06ZM246.15 209.69H246.73V207H246.15V209.69ZM247.1 202.98H245.78V199.55H247.1V202.98ZM246.15 202.61H246.73V199.92H246.15V202.61ZM247.1 195.88H245.78V192.46H247.1V195.88ZM246.15 195.51H246.73V192.82H246.15V195.51ZM247.1 188.79H245.78V185.37H247.1V188.79ZM246.15 188.42H246.73V185.73H246.15V188.42ZM247.1 181.58H245.78V178.16H247.1V181.58ZM246.15 181.21H246.73V178.52H246.15V181.21ZM247.1 174.49H245.78V171.07H247.1V174.49ZM246.15 174.12H246.73V171.43H246.15V174.12ZM247.1 167.25H245.78V163.83H247.1V167.25ZM246.15 166.88H246.73V164.19H246.15V166.88ZM247.1 160.17H245.78V156.74H247.1V160.17ZM246.15 159.8H246.73V157.11H246.15V159.8ZM247.1 153.15H245.78V149.73H247.1V153.15ZM246.16 152.79H246.74V150.1H246.16V152.79ZM247.1 146.07H245.78V142.65H247.1V146.07ZM246.16 145.7H246.74V143.01H246.16V145.7Z" fill="#C2232A"/>
<path d="M247.45 179.88C247.45 180.43 247 180.89 246.44 180.89C245.88 180.89 245.43 180.44 245.43 179.88C245.43 179.32 245.88 178.87 246.44 178.87C247 178.87 247.45 179.32 247.45 179.88Z" fill="#2281B8"/>
<path d="M269.27 217.03H268.53V142.73H269.27V217.03ZM224.17 217.03H223.43V142.73H224.17V217.03ZM246.4 193.88C238.63 193.88 232.31 187.56 232.31 179.79C232.31 172.02 238.63 165.7 246.4 165.7C254.17 165.7 260.49 172.02 260.49 179.79C260.49 187.56 254.17 193.88 246.4 193.88ZM246.4 166.45C239.04 166.45 233.05 172.44 233.05 179.8C233.05 187.16 239.04 193.15 246.4 193.15C253.76 193.15 259.75 187.16 259.75 179.8C259.75 172.44 253.76 166.45 246.4 166.45Z" fill="#2281B8"/>
<path d="M308.44 214.88H308.07V213.54H308.44V214.88ZM305.84 214.88H305.47V213.54H305.84V214.88ZM187.42 214.77H187.05V213.43H187.42V214.77ZM184.81 214.77H184.44V213.43H184.81V214.77ZM308.9 203.4H308.53V200.36H312.29V200.73H308.89V203.41L308.9 203.4ZM305.34 203.4H304.97V200.72H301.57V200.35H305.33V203.39L305.34 203.4ZM187.88 203.29H187.51V200.25H191.27V200.62H187.87V203.3L187.88 203.29ZM184.32 203.29H183.95V200.61H180.55V200.24H184.31V203.28L184.32 203.29ZM312.3 199.18H308.54V196.14H308.91V198.82H312.31V199.19L312.3 199.18ZM305.34 199.18H301.58V198.81H304.98V196.13H305.35V199.17L305.34 199.18ZM191.27 199.07H187.51V196.03H187.88V198.71H191.28V199.08L191.27 199.07ZM184.32 199.07H180.56V198.7H183.96V196.02H184.33V199.06L184.32 199.07ZM308.44 185.78H308.07V184.63H308.44V185.78ZM305.84 185.78H305.47V184.63H305.84V185.78ZM187.42 185.67H187.05V184.52H187.42V185.67ZM184.81 185.67H184.44V184.52H184.81V185.67ZM308.54 175.41H308.17V174.07H308.54V175.41ZM305.93 175.41H305.56V174.07H305.93V175.41ZM187.51 175.3H187.14V173.96H187.51V175.3ZM184.91 175.3H184.54V173.96H184.91V175.3ZM308.99 163.93H308.62V160.88H312.39V161.25H308.99V163.93ZM305.44 163.93H305.07V161.25H301.67V160.88H305.43V163.93H305.44ZM187.97 163.82H187.6V160.78H191.36V161.15H187.96V163.83L187.97 163.82ZM184.41 163.82H184.04V161.14H180.64V160.77H184.4V163.81L184.41 163.82ZM312.39 159.71H308.62V156.67H308.99V159.35H312.39V159.72V159.71ZM305.44 159.71H301.68V159.34H305.08V156.66H305.45V159.7L305.44 159.71ZM191.37 159.6H187.61V156.56H187.98V159.24H191.38V159.61L191.37 159.6ZM184.41 159.6H180.65V159.23H184.05V156.55H184.42V159.59L184.41 159.6ZM308.54 146.31H308.17V145.16H308.54V146.31ZM305.93 146.31H305.56V145.16H305.93V146.31ZM187.51 146.2H187.14V145.05H187.51V146.2ZM184.91 146.2H184.54V145.05H184.91V146.2Z" fill="#C2232A"/>
<path d="M237.67 217.17L237.3 217.14C237.3 217.06 238.03 209.49 246.36 208.86C246.44 208.85 254.03 208.5 255.48 217.08L255.12 217.14C253.72 208.89 246.68 209.2 246.38 209.23C238.37 209.83 237.69 216.87 237.66 217.17" fill="#C2232A"/>
<path d="M167.48 212.26H166.74V188.54L157.79 192.43L157.5 191.75L166.74 187.73V172.2L157.49 167.98L157.8 167.31L166.74 171.39V147.81H167.48V212.26ZM326.29 212.13H325.55V147.68H326.29V171.4L335.24 167.51L335.53 168.19L326.29 172.21V187.74L335.54 191.96L335.23 192.63L326.29 188.55V212.13Z" fill="#C2232A"/>
<path d="M167.12 176.37H171.07C171.07 176.37 174.14 179.46 171.07 183.57H167.14L167.12 176.37ZM325.9 176.37H321.97C318.9 180.48 321.97 183.57 321.97 183.57H325.92L325.9 176.37Z" fill="#87B4DD"/>
<path d="M326.29 183.94H321.82L321.71 183.83C321.71 183.83 318.46 180.47 321.67 176.15L321.78 176H326.26L326.28 183.94H326.29ZM322.13 183.2H325.55L325.53 176.74H322.15C319.76 180.1 321.65 182.65 322.13 183.2ZM171.25 183.94H166.77L166.75 176H171.22L171.33 176.11C171.33 176.11 174.58 179.47 171.36 183.79L171.25 183.94ZM167.5 183.2H170.88C173.27 179.84 171.38 177.29 170.9 176.74H167.48L167.5 183.2Z" fill="#C2232A"/>
<path d="M329.05 176.91C329.69 176.94 329.67 177.56 329.67 177.56V182.51C329.63 182.91 329.21 183.05 329.21 183.05H326.71V182.54C327.66 182.54 327.66 182.04 327.66 182.04V177.99C327.71 177.44 326.71 177.44 326.71 177.44V176.9H329.05V176.91ZM166.49 183.06V182.52C166.49 182.52 165.49 182.52 165.54 181.97V177.92C165.54 177.92 165.54 177.42 166.49 177.42V176.91H163.99C163.99 176.91 163.56 177.05 163.53 177.45V182.4C163.53 182.4 163.51 183.02 164.15 183.05H166.49V183.06Z" fill="#999999"/>
<path d="M254.02 222.73L254.62 221.53H255.12L253.73 224.33H253.23L253.79 223.21L252.74 221.53H253.27L254.02 222.73ZM251.96 224.32H251.5V221.95H250.69V221.52H252.78V221.95H251.96V224.32ZM250.51 224.32H248.93V221.52H249.39V223.89H250.51V224.32ZM248.56 224.32H248.06L247.95 223.96H246.87L246.76 224.32H246.26L247.2 221.52H247.6L248.54 224.32H248.56ZM247.41 222.16L246.99 223.55H247.82L247.4 222.16H247.41ZM244.32 224.32H243.88V221.52H244.36L245.47 223.55V221.52H245.91V224.32H245.43L244.32 222.29V224.32ZM243.32 224.32H241.7V221.52H243.32V221.93H242.16V222.72H243.32V223.13H242.16V223.9H243.32V224.31V224.32ZM240.4 221.52C240.58 221.52 240.75 221.56 240.89 221.65C241.03 221.74 241.15 221.85 241.23 222C241.31 222.15 241.35 222.32 241.35 222.51C241.35 222.7 241.31 222.87 241.23 223.02C241.15 223.17 241.03 223.28 240.89 223.37C240.75 223.46 240.58 223.5 240.4 223.5H239.83V224.34H239.37V221.54H240.4V221.52ZM240.38 223.07C240.53 223.07 240.66 223.02 240.76 222.91C240.86 222.8 240.91 222.67 240.91 222.5C240.91 222.33 240.86 222.2 240.76 222.09C240.66 221.98 240.53 221.93 240.38 221.93H239.84V223.07H240.38Z" fill="white"/>
</g>
<defs>
<clipPath id="clip0_19416_52713">
<rect width="490" height="357" fill="white"/>
</clipPath>
</defs>
</svg>
